<?xml version="1.0" encoding="utf-8"?>
<!-- Generator: Adobe Illustrator 19.0.0, SVG Export Plug-In . SVG Version: 6.00 Build 0)  -->
<svg version="1.1" id="Layer_1" xmlns="http://www.w3.org/2000/svg" xmlns:xlink="http://www.w3.org/1999/xlink" x="0px" y="0px"
	 width="91.9px" height="23.7px" viewBox="27 3.3 91.9 23.7" style="enable-background:new 27 3.3 91.9 23.7;" xml:space="preserve"
	>
<style type="text/css">
	.st0{fill:#FFFFFF;stroke:#FFFFFF;stroke-width:0.5;stroke-linecap:round;stroke-linejoin:round;stroke-miterlimit:10;}
	.st1{fill:#FFFFFF;stroke:#FFFFFF;stroke-width:0.5;stroke-miterlimit:10;}
	.st2{fill:#FFFFFF;stroke:#FFFFFF;stroke-miterlimit:10;}
	.st3{fill:#FFFFFF;stroke:#FFFFFF;stroke-width:0.3144;stroke-miterlimit:10;}
</style>
<g id="XMLID_146_">
	<g id="XMLID_91_">
		<path id="XMLID_110_" class="st0" d="M35.7,9c-0.7,0-1.4-0.3-1.9-0.7c-0.5-0.5-0.8-1.2-0.8-2s0.3-1.4,0.8-1.9c1-0.9,2.6-1,3.7-0.1
			c0.6,0.5,0.9,1.1,0.9,2c0,0.8-0.3,1.5-0.8,2C37,8.7,36.4,9,35.7,9z M35.7,4.3c-0.5,0-1,0.2-1.4,0.5c-0.4,0.5-0.6,0.9-0.6,1.5
			s0.2,1.1,0.6,1.5c0.8,0.7,2,0.7,2.8,0c0.4-0.3,0.6-0.8,0.6-1.5c0-0.6-0.2-1.1-0.6-1.5C36.7,4.5,36.2,4.3,35.7,4.3z"/>
		<path id="XMLID_107_" class="st0" d="M35.7,26.6c-0.8,0-1.5-0.3-2-0.9c-0.5-0.5-0.7-1.3-0.7-2.2V21h-2.5c-1,0-1.7-0.3-2.3-0.8
			c-0.6-0.5-0.8-1.2-0.8-2s0.3-1.5,0.9-2c0.5-0.5,1.3-0.7,2.2-0.7H33V13c0-0.9,0.2-1.7,0.7-2.2s1.2-0.8,2-0.8s1.4,0.3,2,0.8
			c0.5,0.5,0.8,1.2,0.8,2.1v2.7h2.6c0.9,0,1.7,0.2,2.2,0.7l0,0c0.6,0.5,0.8,1.2,0.8,1.9c0,0.8-0.3,1.4-0.8,2
			c-0.5,0.5-1.2,0.8-2.1,0.8h-2.7v2.5c0,1-0.3,1.7-0.8,2.2C37.1,26.3,36.4,26.6,35.7,26.6z M30.5,16.3c-0.8,0-1.4,0.2-1.8,0.5
			c-0.4,0.4-0.7,0.9-0.7,1.5s0.2,1.1,0.6,1.5s1,0.6,1.8,0.6h3.2v3.2c0,0.8,0.2,1.3,0.5,1.8c0.4,0.4,0.8,0.6,1.4,0.6s1.1-0.2,1.5-0.6
			s0.6-1,0.6-1.8v-3.3H41c0.7,0,1.3-0.2,1.7-0.6c0.4-0.4,0.6-0.9,0.6-1.5s-0.2-1.1-0.6-1.4l0.2-0.3l-0.2,0.3c-0.4-0.4-1-0.5-1.8-0.5
			h-3.3v-3.4c0-0.7-0.2-1.3-0.6-1.7c-0.3-0.3-0.8-0.5-1.3-0.5c-0.6,0-1.1,0.2-1.5,0.6c-0.3,0.4-0.5,1-0.5,1.7v3.3H30.5z"/>
		<path id="XMLID_92_" class="st1" d="M42.8,26.6c-2.5,0-4.5-0.8-5.9-2.2c-1.4-1.5-2.1-3.5-2.1-5.9c0-1.6,0.3-3.1,1-4.4
			s1.6-2.3,2.9-3c1.2-0.7,2.7-1.1,4.4-1.1c1,0,2,0.2,2.9,0.5c0.9,0.3,1.6,0.7,2.3,1.2c0.6,0.5,1.1,1.1,1.5,1.6
			c0.4,0.6,0.6,1.2,0.6,1.8c0,0.7-0.3,1.3-0.8,1.7c-0.5,0.5-1.1,0.7-1.8,0.7c-0.5,0-0.9-0.1-1.3-0.4c-0.3-0.2-0.5-0.5-0.8-0.9
			c-0.4-0.6-0.8-1.1-1.2-1.3c-0.3-0.2-0.8-0.4-1.4-0.4c-0.8,0-1.4,0.3-1.9,0.9c-0.5,0.7-0.8,1.7-0.8,2.9c0,0.6,0.1,1.2,0.2,1.7
			c0.1,0.5,0.3,0.9,0.6,1.2c0.2,0.3,0.5,0.5,0.9,0.7c0.3,0.2,0.7,0.2,1.1,0.2c0.6,0,1-0.1,1.4-0.4c0.4-0.3,0.8-0.7,1.1-1.3
			c0.3-0.5,0.6-0.9,0.9-1.2c0.4-0.4,1-0.6,1.7-0.6c0.6,0,1.2,0.3,1.6,0.8s0.7,1.1,0.7,1.7s-0.2,1.2-0.5,1.9
			c-0.3,0.6-0.8,1.2-1.5,1.7c-0.6,0.5-1.5,1-2.4,1.3C45,26.4,43.9,26.6,42.8,26.6z M42.9,10.6c-1.6,0-2.9,0.3-4,1
			c-1.1,0.6-2,1.6-2.6,2.8s-0.9,2.5-0.9,4.1c0,2.3,0.7,4.1,2,5.4c1.3,1.4,3.1,2,5.4,2c1.1,0,2.1-0.1,2.9-0.4
			c0.9-0.3,1.6-0.7,2.2-1.2c0.6-0.5,1-1,1.3-1.5c0.3-0.5,0.4-1.1,0.4-1.5s-0.2-0.8-0.5-1.2l0,0c-0.3-0.3-0.7-0.5-1.2-0.6
			c-0.4,0-0.9,0.1-1.2,0.4c-0.3,0.2-0.5,0.6-0.8,1c-0.4,0.7-0.8,1.2-1.3,1.5s-1.1,0.5-1.8,0.5c-0.5,0-1-0.1-1.4-0.3
			c-0.4-0.2-0.8-0.5-1.1-0.9s-0.5-0.9-0.7-1.4c-0.2-0.6-0.2-1.2-0.2-1.9c0-1.4,0.3-2.6,1-3.4c0.6-0.8,1.4-1.2,2.5-1.2
			c0.7,0,1.3,0.2,1.8,0.5s0.9,0.8,1.4,1.5c0.3,0.4,0.5,0.6,0.7,0.8s0.5,0.3,0.9,0.3c0.5,0,0.9-0.2,1.3-0.5c0.4-0.3,0.5-0.7,0.5-1.2
			s-0.2-1-0.5-1.5c-0.3-0.5-0.7-1-1.3-1.5c-0.6-0.4-1.3-0.8-2.1-1.1C44.8,10.8,43.9,10.6,42.9,10.6z"/>
	</g>
	<g id="XMLID_2_">
		<path id="XMLID_3_" class="st2" d="M57.2,23.5c0,0.3-0.1,0.5-0.3,0.8c-0.2,0.2-0.5,0.3-0.8,0.3s-0.6-0.1-0.8-0.3
			c-0.2-0.2-0.3-0.5-0.3-0.8v-6.8c0-0.3,0.1-0.5,0.3-0.7c0.2-0.2,0.5-0.3,0.8-0.3s0.6,0.1,0.8,0.3c0.2,0.2,0.3,0.5,0.3,0.7V23.5z"/>
		<path id="XMLID_6_" class="st2" d="M61,20.1c0,0.4,0,0.7,0.1,1s0.2,0.5,0.3,0.8c0.2,0.2,0.4,0.4,0.6,0.5c0.3,0.1,0.6,0.2,1,0.2
			c0.3,0,0.5,0,0.8-0.1c0.2-0.1,0.5-0.2,0.7-0.3l0.2-0.1c0.1-0.1,0.2-0.1,0.3-0.2c0.1-0.1,0.2-0.1,0.4-0.1c0.3,0,0.6,0.1,0.8,0.3
			c0.2,0.2,0.3,0.4,0.3,0.7c0,0.3-0.1,0.5-0.3,0.7s-0.5,0.4-0.8,0.6c-0.3,0.2-0.7,0.3-1.1,0.4c-0.4,0.1-0.9,0.1-1.3,0.1
			c-0.8,0-1.4-0.1-2-0.3c-0.5-0.2-1-0.5-1.4-0.9S59,22.5,58.8,22c-0.2-0.6-0.3-1.2-0.3-1.8v-3.4c0-0.7,0.1-1.3,0.3-1.8
			c0.2-0.6,0.4-1,0.8-1.4c0.4-0.6,0.9-0.9,1.4-1.1s1.2-0.3,2-0.3c0.5,0,0.9,0,1.3,0.1c0.4,0.1,0.8,0.2,1.1,0.4
			c0.3,0.2,0.6,0.4,0.8,0.6c0.2,0.2,0.3,0.5,0.3,0.7c0,0.3-0.1,0.5-0.3,0.7S65.7,15,65.4,15c-0.2,0-0.3,0-0.4-0.1
			c-0.1-0.1-0.2-0.1-0.3-0.2l-0.2-0.1c-0.2-0.1-0.4-0.2-0.7-0.3c-0.2,0-0.5,0-0.7,0c-0.4,0-0.7,0.1-1,0.2c-0.3,0.1-0.5,0.3-0.6,0.5
			c-0.2,0.2-0.3,0.5-0.3,0.8C61,16,61,16.3,61,16.7V20.1z"/>
		<path id="XMLID_8_" class="st2" d="M69.2,24.6c-0.2,0-0.4,0-0.5-0.1c-0.2,0-0.4-0.1-0.5-0.3c-0.2-0.1-0.3-0.3-0.4-0.6
			c-0.1-0.3-0.2-0.6-0.2-1.1v-9.4c0-0.3,0.1-0.5,0.3-0.7c0.2-0.2,0.5-0.3,0.8-0.3s0.6,0.1,0.8,0.3c0.2,0.2,0.3,0.5,0.3,0.8v9.1
			c0,0.2,0,0.3,0,0.4s0.1,0.2,0.2,0.3c0.1,0.1,0.2,0.2,0.2,0.2c0.1,0.1,0.1,0.2,0.1,0.4c0,0.3-0.1,0.5-0.3,0.7
			C69.9,24.5,69.6,24.6,69.2,24.6z"/>
		<path id="XMLID_10_" class="st2" d="M74.3,13.4c0,0.3-0.1,0.6-0.4,0.8c-0.3,0.2-0.6,0.4-1,0.4c-0.4,0-0.7-0.1-1-0.4
			c-0.3-0.2-0.4-0.5-0.4-0.8s0.1-0.6,0.4-0.8s0.6-0.4,1-0.4c0.4,0,0.7,0.1,1,0.4C74.2,12.8,74.3,13.1,74.3,13.4z M74.1,23.5
			c0,0.3-0.1,0.5-0.3,0.8c-0.2,0.2-0.5,0.3-0.8,0.3s-0.6-0.1-0.8-0.3c-0.2-0.2-0.3-0.5-0.3-0.8v-6.8c0-0.3,0.1-0.5,0.3-0.7
			c0.2-0.2,0.5-0.3,0.8-0.3s0.6,0.1,0.8,0.3c0.2,0.2,0.3,0.5,0.3,0.7V23.5z"/>
		<path id="XMLID_13_" class="st2" d="M75.7,19c0-0.5,0.1-0.9,0.2-1.3s0.4-0.7,0.6-1c0.3-0.3,0.7-0.5,1.1-0.7s1-0.3,1.6-0.3
			c0.3,0,0.5,0,0.9,0.1c0.3,0,0.7,0.1,1,0.2s0.6,0.3,0.8,0.5c0.2,0.2,0.3,0.4,0.3,0.8c0,0.2-0.1,0.4-0.2,0.6
			c-0.1,0.2-0.4,0.3-0.8,0.3c-0.1,0-0.2,0-0.3,0c-0.1,0-0.2,0-0.3-0.1c-0.2-0.1-0.4-0.1-0.5-0.2c-0.2-0.1-0.4-0.1-0.6-0.1
			c-0.5,0-0.8,0.1-1,0.4c-0.2,0.2-0.3,0.6-0.3,1v2.1c0,0.4,0.1,0.7,0.3,1c0.2,0.2,0.5,0.4,1,0.4c0.3,0,0.5,0,0.7-0.1
			c0.2-0.1,0.3-0.1,0.5-0.2c0.1,0,0.2-0.1,0.2-0.1c0.1,0,0.2,0,0.3,0c0.2,0,0.4,0,0.5,0.1c0.1,0.1,0.3,0.1,0.3,0.2
			c0.1,0.1,0.1,0.2,0.2,0.3c0,0.1,0,0.2,0,0.3c0,0.3-0.1,0.6-0.3,0.8c-0.2,0.2-0.5,0.3-0.8,0.5c-0.3,0.2-0.6,0.2-1,0.2
			c-0.3,0-0.6,0.1-0.9,0.1c-0.6,0-1.1-0.1-1.6-0.3c-0.4-0.2-0.8-0.4-1.1-0.7c-0.3-0.3-0.5-0.6-0.7-1c-0.1-0.4-0.2-0.8-0.2-1.3
			L75.7,19L75.7,19z"/>
		<path id="XMLID_15_" class="st2" d="M87.9,16c0.1-0.1,0.2-0.2,0.4-0.2c0.1,0,0.3-0.1,0.4-0.1c0.3,0,0.6,0.1,0.8,0.3
			c0.2,0.2,0.3,0.4,0.3,0.7s-0.1,0.5-0.3,0.7l0,0l-2.1,2.2l2.5,3.3C90,23,90,23.1,90,23.2c0,0.1,0.1,0.2,0.1,0.3
			c0,0.3-0.1,0.5-0.4,0.7c-0.2,0.2-0.5,0.2-0.8,0.2c-0.4,0-0.7-0.2-1-0.5l-2.3-3.1L85.4,21v2.4c0,0.3-0.1,0.5-0.3,0.8
			c-0.2,0.2-0.5,0.3-0.8,0.3s-0.6-0.1-0.8-0.3c-0.2-0.2-0.3-0.5-0.3-0.8V13.1c0-0.3,0.1-0.5,0.3-0.8c0.2-0.2,0.5-0.3,0.8-0.3
			s0.6,0.1,0.8,0.3c0.2,0.2,0.3,0.5,0.3,0.8v5.4L87.9,16z"/>
		<path id="XMLID_17_" class="st3" d="M103.2,24c0,0.2-0.1,0.3-0.2,0.5c-0.1,0.1-0.3,0.2-0.5,0.2s-0.4-0.1-0.5-0.2s-0.2-0.3-0.2-0.5
			v-8.4L99,21.5c-0.1,0.3-0.4,0.4-0.7,0.4c-0.3,0-0.5-0.1-0.7-0.4L95,15.6V24c0,0.2-0.1,0.3-0.2,0.5c-0.1,0.1-0.3,0.2-0.5,0.2
			s-0.3-0.1-0.5-0.2c-0.1-0.1-0.2-0.3-0.2-0.5V13c0-0.2,0.1-0.4,0.2-0.5c0.2-0.2,0.3-0.3,0.5-0.3c0.3,0,0.6,0.1,0.7,0.4l3.3,7.2
			l3.3-7.2c0.2-0.3,0.4-0.4,0.7-0.4c0.2,0,0.4,0.1,0.5,0.2c0.1,0.1,0.2,0.3,0.2,0.5V24H103.2z"/>
		<path id="XMLID_19_" class="st3" d="M108.1,23.4c0.4,0,0.7,0,0.9-0.1c0.3-0.1,0.5-0.2,0.8-0.3h0.1h0.1c0.2,0,0.3,0.1,0.4,0.2
			s0.2,0.3,0.2,0.4c0,0.2-0.1,0.4-0.3,0.5c-0.2,0.1-0.4,0.3-0.7,0.3c-0.3,0.1-0.6,0.1-0.9,0.2c-0.3,0-0.6,0.1-0.8,0.1
			c-0.5,0-0.9-0.1-1.3-0.2s-0.7-0.3-1-0.6c-0.3-0.3-0.5-0.6-0.6-0.9s-0.2-0.7-0.2-1.1v-3.2c0-0.4,0.1-0.8,0.2-1.2s0.3-0.7,0.6-0.9
			c0.3-0.3,0.6-0.5,1-0.6s0.8-0.2,1.4-0.2c1,0,1.7,0.3,2.1,0.8s0.7,1.2,0.7,2c0,0.8-0.2,1.4-0.7,1.9s-1.2,0.7-2.2,0.7
			c-0.3,0-0.5,0-0.8,0s-0.6-0.1-0.9-0.1v1c0,0.5,0.2,0.9,0.5,1.1C107,23.3,107.4,23.4,108.1,23.4z M109.5,18.4c0-0.6-0.1-1-0.4-1.2
			c-0.3-0.2-0.7-0.4-1.2-0.4c-0.6,0-1,0.1-1.3,0.4s-0.5,0.7-0.5,1.1v1.3c0.3,0,0.7,0.1,1,0.1c0.4,0,0.6,0,0.8,0c0.3,0,0.6,0,0.8-0.1
			c0.2-0.1,0.4-0.2,0.5-0.3c0.1-0.1,0.2-0.3,0.2-0.5C109.5,18.8,109.5,18.6,109.5,18.4z"/>
		<path id="XMLID_22_" class="st3" d="M114.8,15.7c0.3,0,0.6,0,0.9,0.1s0.7,0.1,1,0.2v-3.3c0-0.2,0.1-0.3,0.2-0.5
			c0.1-0.1,0.3-0.2,0.5-0.2s0.4,0.1,0.5,0.2c0.1,0.1,0.2,0.3,0.2,0.5v9.8c0,0.2,0,0.4,0.1,0.6s0.2,0.3,0.4,0.4
			c0,0.1,0.1,0.1,0.1,0.2c0,0,0,0.1,0,0.2c0,0.2-0.1,0.3-0.2,0.4s-0.3,0.2-0.4,0.2c-0.2,0-0.4-0.1-0.5-0.2c-0.2-0.1-0.3-0.2-0.4-0.4
			c-0.4,0.2-0.8,0.4-1.2,0.5c-0.4,0.1-0.8,0.2-1.3,0.2c-0.9,0-1.6-0.3-2-0.9c-0.5-0.6-0.7-1.4-0.7-2.4v-2.2c0-0.5,0-1,0.1-1.4
			c0.1-0.4,0.2-0.8,0.5-1.1c0.3-0.3,0.5-0.5,0.9-0.7C113.9,15.7,114.3,15.7,114.8,15.7z M116.7,17.2c-0.3-0.1-0.6-0.2-0.9-0.3
			c-0.3-0.1-0.6-0.1-0.8-0.1c-0.6,0-1.1,0.2-1.3,0.5c-0.2,0.3-0.4,0.9-0.4,1.7v2.3c0,1.4,0.6,2,1.7,2c0.3,0,0.6,0,0.9-0.1
			s0.6-0.2,0.9-0.4c0-0.1,0-0.1,0-0.2s0-0.1,0-0.2L116.7,17.2L116.7,17.2z"/>
	</g>
	<path id="XMLID_43_" class="st1" d="M56.1,14.6c-0.5,0-1-0.2-1.3-0.5c-0.4-0.3-0.6-0.8-0.6-1.4c0-0.6,0.2-1,0.6-1.4
		c0.7-0.7,1.9-0.7,2.6,0c0.4,0.3,0.6,0.8,0.6,1.4c0,0.6-0.2,1.1-0.6,1.4C57,14.4,56.6,14.6,56.1,14.6z M56.1,11.7
		c-0.3,0-0.5,0.1-0.7,0.3c-0.3,0.2-0.4,0.4-0.4,0.7c0,0.3,0.1,0.6,0.3,0.8c0.4,0.3,1.1,0.4,1.5,0c0.2-0.2,0.3-0.4,0.3-0.8
		c0-0.3-0.1-0.6-0.3-0.8C56.6,11.8,56.3,11.7,56.1,11.7z"/>
</g>
</svg>
