<?xml version="1.0" encoding="utf-8"?>
<!-- Generator: Adobe Illustrator 19.0.0, SVG Export Plug-In . SVG Version: 6.00 Build 0)  -->
<svg version="1.1" id="Layer_1" xmlns="http://www.w3.org/2000/svg" xmlns:xlink="http://www.w3.org/1999/xlink" x="0px" y="0px"
	 width="91.9px" height="23.7px" viewBox="0 0 91.9 23.7" style="enable-background:new 0 0 91.9 23.7;" xml:space="preserve">
<style type="text/css">
	.st0{fill:#01385F;stroke:#01385F;stroke-width:0.5;stroke-linecap:round;stroke-linejoin:round;stroke-miterlimit:10;}
	.st1{fill:#1AC6C6;stroke:#1AC6C6;stroke-width:0.5;stroke-miterlimit:10;}
	.st2{fill:#01385F;}
	.st3{fill:#1AC6C6;stroke:#1AC6C6;stroke-width:0.3144;stroke-miterlimit:10;}
	.st4{fill:#01385F;stroke:#01385F;stroke-width:0.5;stroke-miterlimit:10;}
</style>
<g id="XMLID_146_">
	<g id="XMLID_91_">
		<path id="XMLID_110_" class="st0" d="M8.7,5.7C8,5.7,7.3,5.4,6.8,5C6.3,4.5,6,3.8,6,3c0-0.8,0.3-1.4,0.8-1.9c1-0.9,2.6-1,3.7-0.1
			c0.6,0.5,0.9,1.1,0.9,2c0,0.8-0.3,1.5-0.8,2C10,5.4,9.4,5.7,8.7,5.7z M8.7,1c-0.5,0-1,0.2-1.4,0.5C6.9,2,6.7,2.4,6.7,3
			c0,0.6,0.2,1.1,0.6,1.5c0.8,0.7,2,0.7,2.8,0c0.4-0.3,0.6-0.8,0.6-1.5c0-0.6-0.2-1.1-0.6-1.5C9.7,1.2,9.2,1,8.7,1z"/>
		<path id="XMLID_107_" class="st0" d="M8.7,23.3c-0.8,0-1.5-0.3-2-0.9C6.2,21.9,6,21.1,6,20.2v-2.5H3.5c-1,0-1.7-0.3-2.3-0.8
			c-0.6-0.5-0.8-1.2-0.8-2c0-0.8,0.3-1.5,0.9-2c0.5-0.5,1.3-0.7,2.2-0.7H6V9.7C6,8.8,6.2,8,6.7,7.5C7.2,7,7.9,6.7,8.7,6.7
			c0.8,0,1.4,0.3,2,0.8c0.5,0.5,0.8,1.2,0.8,2.1v2.7h2.6c0.9,0,1.7,0.2,2.2,0.7l0,0c0.6,0.5,0.8,1.2,0.8,1.9c0,0.8-0.3,1.4-0.8,2
			c-0.5,0.5-1.2,0.8-2.1,0.8h-2.7v2.5c0,1-0.3,1.7-0.8,2.2C10.1,23,9.4,23.3,8.7,23.3z M3.5,13c-0.8,0-1.4,0.2-1.8,0.5
			C1.3,13.9,1,14.4,1,15c0,0.6,0.2,1.1,0.6,1.5c0.4,0.4,1,0.6,1.8,0.6h3.2v3.2c0,0.8,0.2,1.3,0.5,1.8c0.4,0.4,0.8,0.6,1.4,0.6
			c0.6,0,1.1-0.2,1.5-0.6c0.4-0.4,0.6-1,0.6-1.8V17h3.4c0.7,0,1.3-0.2,1.7-0.6c0.4-0.4,0.6-0.9,0.6-1.5c0-0.6-0.2-1.1-0.6-1.4
			l0.2-0.3l-0.2,0.3c-0.4-0.4-1-0.5-1.8-0.5h-3.3V9.6c0-0.7-0.2-1.3-0.6-1.7C9.7,7.6,9.2,7.4,8.7,7.4C8.1,7.4,7.6,7.6,7.2,8
			C6.9,8.4,6.7,9,6.7,9.7V13H3.5z"/>
		<path id="XMLID_92_" class="st1" d="M15.8,23.3c-2.5,0-4.5-0.8-5.9-2.2c-1.4-1.5-2.1-3.5-2.1-5.9c0-1.6,0.3-3.1,1-4.4
			c0.7-1.3,1.6-2.3,2.9-3c1.2-0.7,2.7-1.1,4.4-1.1c1,0,2,0.2,2.9,0.5c0.9,0.3,1.6,0.7,2.3,1.2c0.6,0.5,1.1,1.1,1.5,1.6
			c0.4,0.6,0.6,1.2,0.6,1.8c0,0.7-0.3,1.3-0.8,1.7c-0.5,0.5-1.1,0.7-1.8,0.7c-0.5,0-0.9-0.1-1.3-0.4c-0.3-0.2-0.5-0.5-0.8-0.9
			c-0.4-0.6-0.8-1.1-1.2-1.3c-0.3-0.2-0.8-0.4-1.4-0.4c-0.8,0-1.4,0.3-1.9,0.9c-0.5,0.7-0.8,1.7-0.8,2.9c0,0.6,0.1,1.2,0.2,1.7
			c0.1,0.5,0.3,0.9,0.6,1.2c0.2,0.3,0.5,0.5,0.9,0.7c0.3,0.2,0.7,0.2,1.1,0.2c0.6,0,1-0.1,1.4-0.4c0.4-0.3,0.8-0.7,1.1-1.3
			c0.3-0.5,0.6-0.9,0.9-1.2c0.4-0.4,1-0.6,1.7-0.6c0.6,0,1.2,0.3,1.6,0.8c0.4,0.5,0.7,1.1,0.7,1.7c0,0.6-0.2,1.2-0.5,1.9
			c-0.3,0.6-0.8,1.2-1.5,1.7c-0.6,0.5-1.5,1-2.4,1.3C18,23.1,16.9,23.3,15.8,23.3z M15.9,7.3c-1.6,0-2.9,0.3-4,1
			c-1.1,0.6-2,1.6-2.6,2.8c-0.6,1.2-0.9,2.5-0.9,4.1c0,2.3,0.7,4.1,2,5.4c1.3,1.4,3.1,2,5.4,2c1.1,0,2.1-0.1,2.9-0.4
			c0.9-0.3,1.6-0.7,2.2-1.2c0.6-0.5,1-1,1.3-1.5c0.3-0.5,0.4-1.1,0.4-1.5c0-0.4-0.2-0.8-0.5-1.2v0c-0.3-0.3-0.7-0.5-1.2-0.6
			c-0.4,0-0.9,0.1-1.2,0.4c-0.3,0.2-0.5,0.6-0.8,1c-0.4,0.7-0.8,1.2-1.3,1.5c-0.5,0.3-1.1,0.5-1.8,0.5c-0.5,0-1-0.1-1.4-0.3
			c-0.4-0.2-0.8-0.5-1.1-0.9c-0.3-0.4-0.5-0.9-0.7-1.4c-0.2-0.6-0.2-1.2-0.2-1.9c0-1.4,0.3-2.6,1-3.4c0.6-0.8,1.4-1.2,2.5-1.2
			c0.7,0,1.3,0.2,1.8,0.5c0.5,0.3,0.9,0.8,1.4,1.5c0.3,0.4,0.5,0.6,0.7,0.8c0.2,0.2,0.5,0.3,0.9,0.3c0.5,0,0.9-0.2,1.3-0.5
			c0.4-0.3,0.5-0.7,0.5-1.2c0-0.5-0.2-1-0.5-1.5c-0.3-0.5-0.7-1-1.3-1.5c-0.6-0.4-1.3-0.8-2.1-1.1C17.8,7.5,16.9,7.3,15.9,7.3z"/>
	</g>
	<g id="XMLID_2_">
		<path id="XMLID_3_" class="st2" d="M30.2,20.2c0,0.3-0.1,0.5-0.3,0.8c-0.2,0.2-0.5,0.3-0.8,0.3c-0.3,0-0.6-0.1-0.8-0.3
			c-0.2-0.2-0.3-0.5-0.3-0.8v-6.8c0-0.3,0.1-0.5,0.3-0.7c0.2-0.2,0.5-0.3,0.8-0.3c0.3,0,0.6,0.1,0.8,0.3c0.2,0.2,0.3,0.5,0.3,0.7
			V20.2z"/>
		<path id="XMLID_6_" class="st2" d="M34,16.8c0,0.4,0,0.7,0.1,1c0.1,0.3,0.2,0.5,0.3,0.8c0.2,0.2,0.4,0.4,0.6,0.5
			c0.3,0.1,0.6,0.2,1,0.2c0.3,0,0.5,0,0.8-0.1c0.2-0.1,0.5-0.2,0.7-0.3l0.2-0.1c0.1-0.1,0.2-0.1,0.3-0.2c0.1-0.1,0.2-0.1,0.4-0.1
			c0.3,0,0.6,0.1,0.8,0.3c0.2,0.2,0.3,0.4,0.3,0.7c0,0.3-0.1,0.5-0.3,0.7c-0.2,0.2-0.5,0.4-0.8,0.6c-0.3,0.2-0.7,0.3-1.1,0.4
			c-0.4,0.1-0.9,0.1-1.3,0.1c-0.8,0-1.4-0.1-2-0.3c-0.5-0.2-1-0.5-1.4-0.9c-0.4-0.4-0.6-0.9-0.8-1.4c-0.2-0.6-0.3-1.2-0.3-1.8v-3.4
			c0-0.7,0.1-1.3,0.3-1.8c0.2-0.6,0.4-1,0.8-1.4C33,9.7,33.5,9.4,34,9.2c0.5-0.2,1.2-0.3,2-0.3c0.5,0,0.9,0,1.3,0.1
			c0.4,0.1,0.8,0.2,1.1,0.4c0.3,0.2,0.6,0.4,0.8,0.6c0.2,0.2,0.3,0.5,0.3,0.7c0,0.3-0.1,0.5-0.3,0.7c-0.2,0.2-0.5,0.3-0.8,0.3
			c-0.2,0-0.3,0-0.4-0.1c-0.1-0.1-0.2-0.1-0.3-0.2l-0.2-0.1c-0.2-0.1-0.4-0.2-0.7-0.3C36.6,11,36.3,11,36.1,11c-0.4,0-0.7,0.1-1,0.2
			c-0.3,0.1-0.5,0.3-0.6,0.5c-0.2,0.2-0.3,0.5-0.3,0.8C34,12.7,34,13,34,13.4V16.8z"/>
		<path id="XMLID_8_" class="st2" d="M42.2,21.3c-0.2,0-0.4,0-0.5-0.1c-0.2,0-0.4-0.1-0.5-0.3c-0.2-0.1-0.3-0.3-0.4-0.6
			c-0.1-0.3-0.2-0.6-0.2-1.1V9.8c0-0.3,0.1-0.5,0.3-0.7c0.2-0.2,0.5-0.3,0.8-0.3s0.6,0.1,0.8,0.3c0.2,0.2,0.3,0.5,0.3,0.8V19
			c0,0.2,0,0.3,0,0.4c0,0.1,0.1,0.2,0.2,0.3c0.1,0.1,0.2,0.2,0.2,0.2c0.1,0.1,0.1,0.2,0.1,0.4c0,0.3-0.1,0.5-0.3,0.7
			C42.9,21.2,42.6,21.3,42.2,21.3z"/>
		<path id="XMLID_10_" class="st2" d="M47.3,10.1c0,0.3-0.1,0.6-0.4,0.8c-0.3,0.2-0.6,0.4-1,0.4c-0.4,0-0.7-0.1-1-0.4
			c-0.3-0.2-0.4-0.5-0.4-0.8c0-0.3,0.1-0.6,0.4-0.8c0.3-0.2,0.6-0.4,1-0.4c0.4,0,0.7,0.1,1,0.4C47.2,9.5,47.3,9.8,47.3,10.1z
			 M47.1,20.2c0,0.3-0.1,0.5-0.3,0.8c-0.2,0.2-0.5,0.3-0.8,0.3c-0.3,0-0.6-0.1-0.8-0.3c-0.2-0.2-0.3-0.5-0.3-0.8v-6.8
			c0-0.3,0.1-0.5,0.3-0.7c0.2-0.2,0.5-0.3,0.8-0.3c0.3,0,0.6,0.1,0.8,0.3c0.2,0.2,0.3,0.5,0.3,0.7V20.2z"/>
		<path id="XMLID_13_" class="st2" d="M48.7,15.7c0-0.5,0.1-0.9,0.2-1.3c0.1-0.4,0.4-0.7,0.6-1c0.3-0.3,0.7-0.5,1.1-0.7
			s1-0.3,1.6-0.3c0.3,0,0.5,0,0.9,0.1c0.3,0,0.7,0.1,1,0.2c0.3,0.1,0.6,0.3,0.8,0.5c0.2,0.2,0.3,0.4,0.3,0.8c0,0.2-0.1,0.4-0.2,0.6
			c-0.1,0.2-0.4,0.3-0.8,0.3c-0.1,0-0.2,0-0.3,0c-0.1,0-0.2,0-0.3-0.1c-0.2-0.1-0.4-0.1-0.5-0.2c-0.2-0.1-0.4-0.1-0.6-0.1
			c-0.5,0-0.8,0.1-1,0.4c-0.2,0.2-0.3,0.6-0.3,1V18c0,0.4,0.1,0.7,0.3,1c0.2,0.2,0.5,0.4,1,0.4c0.3,0,0.5,0,0.7-0.1
			c0.2-0.1,0.3-0.1,0.5-0.2c0.1,0,0.2-0.1,0.2-0.1c0.1,0,0.2,0,0.3,0c0.2,0,0.4,0,0.5,0.1c0.1,0.1,0.3,0.1,0.3,0.2
			c0.1,0.1,0.1,0.2,0.2,0.3c0,0.1,0,0.2,0,0.3c0,0.3-0.1,0.6-0.3,0.8c-0.2,0.2-0.5,0.3-0.8,0.5s-0.6,0.2-1,0.2
			c-0.3,0-0.6,0.1-0.9,0.1c-0.6,0-1.1-0.1-1.6-0.3c-0.4-0.2-0.8-0.4-1.1-0.7c-0.3-0.3-0.5-0.6-0.7-1c-0.1-0.4-0.2-0.8-0.2-1.3V15.7z
			"/>
		<path id="XMLID_15_" class="st2" d="M60.9,12.7c0.1-0.1,0.2-0.2,0.4-0.2c0.1,0,0.3-0.1,0.4-0.1c0.3,0,0.6,0.1,0.8,0.3
			c0.2,0.2,0.3,0.4,0.3,0.7c0,0.3-0.1,0.5-0.3,0.7h0l-2.1,2.2l2.5,3.3c0.1,0.1,0.1,0.2,0.1,0.3c0,0.1,0.1,0.2,0.1,0.3
			c0,0.3-0.1,0.5-0.4,0.7c-0.2,0.2-0.5,0.2-0.8,0.2c-0.4,0-0.7-0.2-1-0.5l-2.3-3.1l-0.2,0.2v2.4c0,0.3-0.1,0.5-0.3,0.8
			c-0.2,0.2-0.5,0.3-0.8,0.3s-0.6-0.1-0.8-0.3c-0.2-0.2-0.3-0.5-0.3-0.8V9.8c0-0.3,0.1-0.5,0.3-0.8c0.2-0.2,0.5-0.3,0.8-0.3
			s0.6,0.1,0.8,0.3c0.2,0.2,0.3,0.5,0.3,0.8v5.4L60.9,12.7z"/>
		<path id="XMLID_17_" class="st3" d="M76.2,20.7c0,0.2-0.1,0.3-0.2,0.5c-0.1,0.1-0.3,0.2-0.5,0.2c-0.2,0-0.4-0.1-0.5-0.2
			c-0.1-0.1-0.2-0.3-0.2-0.5v-8.4l-2.8,5.9c-0.1,0.3-0.4,0.4-0.7,0.4c-0.3,0-0.5-0.1-0.7-0.4L68,12.3v8.4c0,0.2-0.1,0.3-0.2,0.5
			c-0.1,0.1-0.3,0.2-0.5,0.2c-0.2,0-0.3-0.1-0.5-0.2c-0.1-0.1-0.2-0.3-0.2-0.5v-11c0-0.2,0.1-0.4,0.2-0.5C67,9,67.1,8.9,67.3,8.9
			c0.3,0,0.6,0.1,0.7,0.4l3.3,7.2l3.3-7.2c0.2-0.3,0.4-0.4,0.7-0.4c0.2,0,0.4,0.1,0.5,0.2c0.1,0.1,0.2,0.3,0.2,0.5V20.7z"/>
		<path id="XMLID_19_" class="st3" d="M81.1,20.1c0.4,0,0.7,0,0.9-0.1c0.3-0.1,0.5-0.2,0.8-0.3c0,0,0.1,0,0.1,0c0,0,0.1,0,0.1,0
			c0.2,0,0.3,0.1,0.4,0.2c0.1,0.1,0.2,0.3,0.2,0.4c0,0.2-0.1,0.4-0.3,0.5c-0.2,0.1-0.4,0.3-0.7,0.3c-0.3,0.1-0.6,0.1-0.9,0.2
			c-0.3,0-0.6,0.1-0.8,0.1c-0.5,0-0.9-0.1-1.3-0.2c-0.4-0.1-0.7-0.3-1-0.6c-0.3-0.3-0.5-0.6-0.6-0.9c-0.1-0.3-0.2-0.7-0.2-1.1v-3.2
			c0-0.4,0.1-0.8,0.2-1.2c0.1-0.4,0.3-0.7,0.6-0.9c0.3-0.3,0.6-0.5,1-0.6c0.4-0.1,0.8-0.2,1.4-0.2c1,0,1.7,0.3,2.1,0.8
			s0.7,1.2,0.7,2c0,0.8-0.2,1.4-0.7,1.9c-0.5,0.5-1.2,0.7-2.2,0.7c-0.3,0-0.5,0-0.8,0c-0.3,0-0.6-0.1-0.9-0.1v1
			c0,0.5,0.2,0.9,0.5,1.1C80,20,80.4,20.1,81.1,20.1z M82.5,15.1c0-0.6-0.1-1-0.4-1.2c-0.3-0.2-0.7-0.4-1.2-0.4
			c-0.6,0-1,0.1-1.3,0.4c-0.3,0.3-0.5,0.7-0.5,1.1v1.3c0.3,0,0.7,0.1,1,0.1c0.4,0,0.6,0,0.8,0c0.3,0,0.6,0,0.8-0.1
			c0.2-0.1,0.4-0.2,0.5-0.3c0.1-0.1,0.2-0.3,0.2-0.5C82.5,15.5,82.5,15.3,82.5,15.1z"/>
		<path id="XMLID_22_" class="st3" d="M87.8,12.4c0.3,0,0.6,0,0.9,0.1c0.3,0.1,0.7,0.1,1,0.2V9.4c0-0.2,0.1-0.3,0.2-0.5
			c0.1-0.1,0.3-0.2,0.5-0.2c0.2,0,0.4,0.1,0.5,0.2C91,9,91.1,9.2,91.1,9.4v9.8c0,0.2,0,0.4,0.1,0.6c0.1,0.2,0.2,0.3,0.4,0.4
			c0,0.1,0.1,0.1,0.1,0.2c0,0,0,0.1,0,0.2c0,0.2-0.1,0.3-0.2,0.4c-0.1,0.1-0.3,0.2-0.4,0.2c-0.2,0-0.4-0.1-0.5-0.2
			c-0.2-0.1-0.3-0.2-0.4-0.4c-0.4,0.2-0.8,0.4-1.2,0.5c-0.4,0.1-0.8,0.2-1.3,0.2c-0.9,0-1.6-0.3-2-0.9C85.2,19.8,85,19,85,18v-2.2
			c0-0.5,0-1,0.1-1.4c0.1-0.4,0.2-0.8,0.5-1.1s0.5-0.5,0.9-0.7S87.3,12.4,87.8,12.4z M89.7,13.9c-0.3-0.1-0.6-0.2-0.9-0.3
			c-0.3-0.1-0.6-0.1-0.8-0.1c-0.6,0-1.1,0.2-1.3,0.5s-0.4,0.9-0.4,1.7V18c0,1.4,0.6,2,1.7,2c0.3,0,0.6,0,0.9-0.1
			c0.3-0.1,0.6-0.2,0.9-0.4c0-0.1,0-0.1,0-0.2c0-0.1,0-0.1,0-0.2V13.9z"/>
	</g>
	<path id="XMLID_43_" class="st4" d="M29.1,11.3c-0.5,0-1-0.2-1.3-0.5c-0.4-0.3-0.6-0.8-0.6-1.4c0-0.6,0.2-1,0.6-1.4
		c0.7-0.7,1.9-0.7,2.6,0C30.8,8.3,31,8.8,31,9.4c0,0.6-0.2,1.1-0.6,1.4C30,11.1,29.6,11.3,29.1,11.3z M29.1,8.4
		c-0.3,0-0.5,0.1-0.7,0.3C28.1,8.9,28,9.1,28,9.4c0,0.3,0.1,0.6,0.3,0.8c0.4,0.3,1.1,0.4,1.5,0c0.2-0.2,0.3-0.4,0.3-0.8
		c0-0.3-0.1-0.6-0.3-0.8C29.6,8.5,29.3,8.4,29.1,8.4z"/>
</g>
</svg>
